<svg width="758" height="603" viewBox="0 0 758 603" fill="none" xmlns="http://www.w3.org/2000/svg">
<g clip-path="url(#clip0_379_531)">
<path d="M477.461 160.598C444.82 138.327 399.864 146.98 368.062 170.577C357.684 178.384 348.152 187.376 339.639 197.391C334.674 203.148 329.968 209.193 325.466 215.445C324.357 216.979 323.253 218.528 322.17 220.093C321.43 221.15 320.695 222.215 319.967 223.288C310.837 236.706 302.466 250.821 294.272 264.809C273.816 299.725 252.827 335.682 221.66 360.197C215.238 365.246 206.28 369.793 199.701 364.972C193.992 360.784 193.747 351.98 195.046 344.764C199.877 318.031 217.301 295.878 235.812 276.966C254.322 258.055 274.814 240.717 288.8 217.866C302.787 195.014 309.177 164.507 296.926 140.574C286.368 119.95 263.652 108.381 241.479 107.842C219.308 107.309 197.767 116.421 179.009 128.932C160.253 141.45 143.76 157.332 126.547 172.12C116.171 181.042 101.684 189.895 90.3758 182.341C80.8246 175.957 80.0796 160.632 85.7719 150.314C91.4642 139.996 101.624 133.511 111.364 127.464C141.603 108.681 171.843 89.9008 202.084 71.122C211.362 65.3656 220.842 59.4251 227.69 50.6475C234.541 41.8749 238.343 29.5453 234.567 18.8925C230.843 8.39436 220.439 1.72819 209.913 0.337004C199.394 -1.05097 188.785 2.03271 178.945 6.20966C142.072 21.8665 55.2466 124.296 32.1061 141.808C17.235 153.056 1.61308 167.295 0.10913 186.56C-1.76445 210.544 20.8069 230.448 43.4626 232.774C66.1153 235.108 88.0709 224.694 108.311 213.684C128.552 202.674 149.209 190.534 171.928 189.006C194.646 187.478 220.135 200.317 225.521 223.701C230.204 244.048 218.298 265.043 202.789 278.062C190.649 288.255 176.402 295.043 162.641 302.676C158.819 304.789 155.038 306.975 151.35 309.31C141.907 315.302 133.081 322.318 125.014 330.243C116.545 338.55 108.943 347.794 102.338 357.814C97.0676 365.799 92.4691 374.257 88.5953 383.09C88.005 384.44 87.4319 385.808 86.8758 387.195C86.3491 388.521 85.8388 389.864 85.355 391.22C79.0384 408.813 76.5777 428.527 84.6472 444.95C92.6962 461.328 110.13 471.026 127.539 472.371C137.608 473.007 147.699 471.597 157.267 468.219C164.304 465.802 171.116 462.707 177.616 458.972C207.756 441.868 231.618 414.746 253.41 386.863C275.196 358.983 295.712 329.627 321.577 305.959C347.44 282.287 379.85 264.39 414.059 264.662C448.267 264.929 483.531 286.965 493.247 321.642C507.408 295.842 516.984 266.432 515.72 236.635C514.455 206.839 501.165 176.774 477.461 160.598Z" fill="#3F3D56"/>
<path d="M344.747 256.996C342.671 256.996 340.989 255.217 340.989 253.022C340.989 250.828 342.671 249.049 344.747 249.049C346.823 249.049 348.505 250.828 348.505 253.022C348.505 255.217 346.823 256.996 344.747 256.996Z" fill="#0152A1"/>
<path d="M486.381 262.677C483.172 262.677 480.57 259.926 480.57 256.533C480.57 253.14 483.172 250.39 486.381 250.39C489.59 250.39 492.191 253.14 492.191 256.533C492.191 259.926 489.59 262.677 486.381 262.677Z" fill="#FF6584"/>
<path d="M66.4038 208.319C65.2181 208.319 64.2568 207.303 64.2568 206.049C64.2568 204.795 65.2181 203.779 66.4038 203.779C67.5896 203.779 68.5508 204.795 68.5508 206.049C68.5508 207.303 67.5896 208.319 66.4038 208.319Z" fill="#FF6584"/>
<path d="M109.844 86.3221C108.658 86.3221 107.697 85.3058 107.697 84.0522C107.697 82.7986 108.658 81.7823 109.844 81.7823C111.03 81.7823 111.991 82.7986 111.991 84.0522C111.991 85.3058 111.03 86.3221 109.844 86.3221Z" fill="#FF6584"/>
<path d="M165.086 307.963C164.477 306.102 163.656 304.327 162.641 302.676C158.819 304.789 155.038 306.975 151.349 309.31C141.907 315.302 133.081 322.318 125.014 330.243C128.261 334.909 132.982 338.188 138.321 339.487C143.66 340.786 149.263 340.017 154.112 337.321C158.96 334.625 162.734 330.18 164.748 324.794C166.762 319.407 166.882 313.435 165.086 307.963L165.086 307.963Z" fill="#FF6584"/>
<path d="M438.895 234.09C437.683 234.09 436.699 233.051 436.699 231.769C436.699 230.486 437.683 229.447 438.895 229.447C440.108 229.447 441.091 230.486 441.091 231.769C441.091 233.051 440.108 234.09 438.895 234.09Z" fill="#F0F0F0"/>
<path d="M169.879 62.3297C168.667 62.3297 167.684 61.2903 167.684 60.0082C167.684 58.726 168.667 57.6866 169.879 57.6866C171.092 57.6866 172.075 58.726 172.075 60.0082C172.075 61.2903 171.092 62.3297 169.879 62.3297Z" fill="#F0F0F0"/>
<path d="M189.649 20.9777C188.437 20.9777 187.454 19.9383 187.454 18.6562C187.454 17.3741 188.437 16.3347 189.649 16.3347C190.862 16.3347 191.845 17.3741 191.845 18.6562C191.845 19.9383 190.862 20.9777 189.649 20.9777Z" fill="#F0F0F0"/>
<path d="M34.1709 175.119C32.9582 175.119 31.9751 174.08 31.9751 172.798C31.9751 171.516 32.9582 170.476 34.1709 170.476C35.3837 170.476 36.3668 171.516 36.3668 172.798C36.3668 174.08 35.3837 175.119 34.1709 175.119Z" fill="#F0F0F0"/>
<path d="M149.509 178.455C148.297 178.455 147.314 177.415 147.314 176.133C147.314 174.851 148.297 173.812 149.509 173.812C150.722 173.812 151.705 174.851 151.705 176.133C151.705 177.415 150.722 178.455 149.509 178.455Z" fill="#F0F0F0"/>
<path d="M210.714 399.882C209.502 399.882 208.518 398.843 208.518 397.561C208.518 396.279 209.502 395.239 210.714 395.239C211.927 395.239 212.91 396.279 212.91 397.561C212.91 398.843 211.927 399.882 210.714 399.882Z" fill="#F0F0F0"/>
<path d="M279.713 182.115C278.5 182.115 277.517 181.075 277.517 179.793C277.517 178.511 278.5 177.471 279.713 177.471C280.926 177.471 281.909 178.511 281.909 179.793C281.909 181.075 280.926 182.115 279.713 182.115Z" fill="#F0F0F0"/>
<path d="M282.795 138.217C281.583 138.217 280.6 137.177 280.6 135.895C280.6 134.613 281.583 133.574 282.795 133.574C284.008 133.574 284.991 134.613 284.991 135.895C284.991 137.177 284.008 138.217 282.795 138.217Z" fill="#F0F0F0"/>
<path d="M162.427 407.435C158.807 396.356 152.748 386.345 144.75 378.228C143.694 377.16 142.608 376.127 141.491 375.13C130.434 365.24 116.762 359.194 102.338 357.814C97.0677 365.799 92.4691 374.257 88.5953 383.09C88.005 384.44 87.4319 385.808 86.8759 387.195C86.3492 388.521 85.8388 389.864 85.355 391.22C79.0384 408.813 76.5778 428.527 84.6472 444.95C92.6962 461.328 110.13 471.026 127.539 472.371C137.608 473.007 147.699 471.597 157.267 468.219C162.45 458.5 165.496 447.672 166.18 436.538C166.267 435.136 166.309 433.734 166.322 432.325C166.378 423.854 165.061 415.435 162.427 407.435V407.435Z" fill="#0152A1"/>
<path d="M191.489 392.726C187.962 381.982 174.768 375.657 154.33 374.909C150.241 374.757 145.743 376.555 141.491 375.13C120.865 368.214 102.152 372.733 86.8758 387.195C86.3491 388.521 85.8387 389.864 85.3549 391.22C85.5581 391.14 85.763 391.065 85.9678 390.99C106.609 383.416 127.099 378.995 144.75 378.228C148.011 378.089 151.901 376.094 154.225 378.185C172.883 394.973 185.502 387.938 188.562 393.8C193.03 402.361 185.103 415.701 170.756 428.548C169.337 429.82 167.859 431.079 166.322 432.324C166.309 433.734 166.267 435.136 166.18 436.538C168.494 434.729 170.687 432.9 172.758 431.049C188.364 417.076 195.014 403.465 191.489 392.726Z" fill="#E4E4E4"/>
<path d="M114.181 468.823C112.968 468.823 111.985 467.784 111.985 466.502C111.985 465.219 112.968 464.18 114.181 464.18C115.394 464.18 116.377 465.219 116.377 466.502C116.377 467.784 115.394 468.823 114.181 468.823Z" fill="#F0F0F0"/>
<path d="M153.029 438.965C151.816 438.965 150.833 437.925 150.833 436.643C150.833 435.361 151.816 434.321 153.029 434.321C154.242 434.321 155.225 435.361 155.225 436.643C155.225 437.925 154.242 438.965 153.029 438.965Z" fill="#F0F0F0"/>
<path d="M123.307 445.273C111.514 445.273 101.955 435.166 101.955 422.698C101.955 410.23 111.514 400.122 123.307 400.122C135.1 400.122 144.66 410.23 144.66 422.698C144.66 435.166 135.1 445.273 123.307 445.273Z" fill="#F0F0F0"/>
<path opacity="0.3" d="M458.785 173.126C453.793 173.374 443.47 175.994 432.283 179.383C421.103 182.774 408.976 186.912 397.004 191.004C376.046 198.163 355.089 205.319 334.133 212.473C331.252 213.455 328.363 214.445 325.466 215.445C324.357 216.979 323.253 218.528 322.17 220.093C324.717 219.141 327.273 218.22 329.822 217.343C340.712 213.601 350.163 211.133 360.732 207.729C376.997 202.495 394.157 195.62 410.799 189.219C427.44 182.813 446.533 175.917 458.785 173.126Z" fill="#F0F0F0"/>
<path opacity="0.3" d="M86.1427 127.679L39.0038 210.415L83.4838 126.033C83.5357 125.765 83.6471 125.514 83.809 125.301C83.971 125.088 84.1786 124.918 84.4149 124.807C84.6511 124.695 84.909 124.645 85.1673 124.66C85.4256 124.675 85.6767 124.755 85.9 124.893C86.1232 125.031 86.3121 125.224 86.4509 125.455C86.5897 125.685 86.6746 125.948 86.6983 126.22C86.722 126.492 86.684 126.767 86.5873 127.02C86.4907 127.274 86.3383 127.5 86.1427 127.679V127.679Z" fill="#F0F0F0"/>
<path d="M109.134 371.849C107.921 371.849 106.938 370.81 106.938 369.528C106.938 368.246 107.921 367.206 109.134 367.206C110.346 367.206 111.329 368.246 111.329 369.528C111.329 370.81 110.346 371.849 109.134 371.849Z" fill="#F0F0F0"/>
<path d="M494.265 364.187C486.491 364.187 480.188 357.524 480.188 349.304C480.188 341.084 486.491 334.421 494.265 334.421C502.039 334.421 508.341 341.084 508.341 349.304C508.341 357.524 502.039 364.187 494.265 364.187Z" fill="#0152A1"/>
<path d="M502.604 341.133C504.023 340.722 505.34 339.988 506.462 338.981C507.584 337.974 508.483 336.72 509.096 335.305C509.71 333.891 510.023 332.352 510.013 330.797C510.003 329.241 509.67 327.706 509.039 326.301L534.527 299.77L516.349 295.67L494.932 321.493C492.77 322.771 491.126 324.843 490.312 327.317C489.498 329.791 489.571 332.495 490.517 334.916C491.463 337.337 493.215 339.307 495.443 340.452C497.671 341.598 500.219 341.84 502.604 341.133L502.604 341.133Z" fill="#A0616A"/>
<path d="M624.473 134.657L610.259 144.563L593.62 148.684C593.62 148.684 580.424 248.397 573.94 254.378C567.455 260.359 572.919 260.926 571.162 269.176C569.405 277.426 565.338 294.304 565.338 294.304C604.838 320.19 640.125 323.351 670.231 298.559C670.701 296.925 670.629 295.171 670.026 293.586C669.424 292.001 668.327 290.682 666.919 289.847C661.828 286.503 672.869 273.406 668.702 270.783C664.535 268.16 671.899 248.54 671.899 248.54L670.614 206.404L674.191 199.941L669.152 158.455L656.16 152.351L651.712 138.411L624.473 134.657Z" fill="#0152A1"/>
<path d="M618.314 138.155L594.875 146.407C594.875 146.407 568.948 143.513 567.897 184.32C566.847 225.126 571.678 247.024 571.678 247.024C571.678 247.024 517.745 361.694 576.167 327.826L593.24 256.752L610.836 145.132L618.314 138.155Z" fill="#2F2E41"/>
<path d="M594.808 228.373L582.651 226.597C582.651 226.597 581.477 245.977 575.661 248.914C569.846 251.851 571.806 252.334 571.121 255.443C570.435 258.552 576.292 267.167 571.685 269.309C567.079 271.452 526.817 325.12 526.817 325.12L503.063 301.865C504.695 297.188 512.551 300.994 513.044 296.036C513.664 288.54 526.098 268.062 528.744 265.436C531.39 262.81 530.344 258.181 531.715 251.963C533.087 245.745 532.135 251.511 534.421 241.147C536.707 230.784 567.684 177.977 568.761 168.408C569.838 158.839 582.449 153.207 582.449 153.207L592.251 155.623L594.808 228.373Z" fill="#2F2E41"/>
<path d="M697.456 572.983L683.148 576.955L661.845 520.493L682.964 514.63L697.456 572.983Z" fill="#A0616A"/>
<path d="M701.88 588.625L657.879 600.841L657.733 600.253C656.54 595.45 657.201 590.344 659.569 586.056C661.937 581.769 665.819 578.651 670.361 577.39L670.362 577.39L676.798 568.711L693.396 570.995L697.237 569.928L701.88 588.625Z" fill="#2F2E41"/>
<path d="M624.104 584.301L609.311 584.3L602.273 523.968L624.107 523.97L624.104 584.301Z" fill="#A0616A"/>
<path d="M624.625 600.618L579.132 600.616V600.007C579.133 595.042 580.998 590.281 584.319 586.77C587.64 583.259 592.143 581.287 596.839 581.286H596.84L605.15 574.621L620.655 581.287L624.626 581.287L624.625 600.618Z" fill="#2F2E41"/>
<path d="M661.106 295.593C664.68 300.316 662.893 316.374 662.893 316.374C662.893 316.374 669.147 368.326 666.466 373.049C663.786 377.772 668.253 381.551 670.933 388.163C673.614 394.775 676.294 410.833 676.294 410.833C691.482 424.057 690.589 484.511 690.589 484.511L695.949 538.353C694.162 544.02 669.147 544.965 665.573 544.02C661.999 543.075 627.156 409.888 627.156 409.888C627.156 409.888 628.943 538.353 628.943 544.02C628.943 549.688 604.82 546.854 599.46 546.854C594.099 546.854 560.149 315.429 560.149 315.429V302.205L564.617 295.593C564.617 295.593 657.532 290.87 661.106 295.593Z" fill="#2F2E41"/>
<path d="M652.625 140.946L674.565 155.725L685.177 165.13L671.101 260.008C671.101 260.008 692.487 346.249 658.784 340.932C625.08 335.616 626.97 258.112 626.97 258.112L652.625 140.946Z" fill="#2F2E41"/>
<path d="M623.268 275.724C624.534 276.516 625.949 277.006 627.414 277.158C628.878 277.31 630.356 277.121 631.744 276.603C633.132 276.086 634.395 275.253 635.446 274.164C636.496 273.074 637.308 271.755 637.823 270.298L673.581 271.211L663.726 254.549L631.281 256.236C628.908 255.482 626.357 255.675 624.109 256.777C621.862 257.879 620.075 259.815 619.088 262.217C618.1 264.619 617.98 267.321 618.75 269.81C619.521 272.3 621.128 274.404 623.268 275.724V275.724Z" fill="#A0616A"/>
<path d="M641.108 128.116C625.501 128.116 612.85 114.74 612.85 98.2399C612.85 81.7399 625.501 68.364 641.108 68.364C656.714 68.364 669.365 81.7399 669.365 98.2399C669.365 114.74 656.714 128.116 641.108 128.116Z" fill="#A0616A"/>
<path d="M673.159 78.6094C669.986 73.4194 664.032 69.9605 658.26 70.9324C657.723 67.0376 656.185 63.3733 653.814 60.3385C651.444 57.3037 648.331 55.0146 644.815 53.7207C641.299 52.4267 637.515 52.1773 633.875 52.9997C630.234 53.8222 626.877 55.6849 624.168 58.385C623.277 57.7219 622.24 57.3132 621.156 57.1985C620.072 57.0838 618.978 57.267 617.981 57.7303C615.994 58.6854 614.266 60.1521 612.954 61.9963C609.642 66.3635 607.511 71.5985 606.79 77.1441C606.068 82.6897 606.783 88.3384 608.857 93.4888C608.151 90.7774 610.722 88.2265 613.318 87.618C615.915 87.0096 618.639 87.5852 621.272 87.189C624.647 86.6812 627.681 84.6111 631.062 84.1453C633.903 83.7537 636.76 84.5239 639.53 85.2958C642.3 86.0677 645.15 86.8548 647.995 86.4977C650.84 86.1405 654.505 97.5402 654.456 105.569C654.447 107.091 654.743 109.045 656.149 109.367C657.881 109.765 658.885 107.238 660.534 106.549C661.294 106.319 662.108 106.409 662.806 106.802C663.504 107.194 664.03 107.857 664.275 108.652C664.482 109.46 664.505 110.309 664.34 111.128C664.174 111.947 663.827 112.712 663.325 113.36C662.312 114.645 661.109 115.748 659.763 116.627L660.442 117.224C661.571 118.802 663.914 118.87 665.542 117.894C667.098 116.78 668.359 115.262 669.204 113.486C672.215 108.19 674.857 102.547 675.92 96.4705C676.983 90.3939 676.332 83.7994 673.159 78.6094Z" fill="#2F2E41"/>
<path d="M663.183 167.921L675.88 156.416C675.88 156.416 690.707 161.307 693.221 171.59C713.008 198.341 723.665 229.582 726.527 264.658C700.693 274.974 669.06 278.634 635.03 279.541L642.068 251.636L690.456 242.334L663.183 167.921Z" fill="#2F2E41"/>
<path d="M708.173 587.465L714.957 575.94L716.311 582.526C716.549 583.679 716.786 584.851 717.006 586.014C718.933 584.274 720.983 582.665 722.989 581.121C729.147 576.396 735.303 571.664 741.456 566.927L739.529 578.74C738.341 586.014 737.1 593.437 734.162 600.087C733.837 600.841 733.485 601.585 733.106 602.31H704.478C704.248 601.636 704.089 600.938 704.003 600.227C703.996 600.181 703.993 600.134 703.995 600.087C703.546 595.576 705.904 591.325 708.173 587.465Z" fill="#3F3D56"/>
<path d="M455.175 574.225L442.343 552.422L439.779 564.881C439.33 567.063 438.88 569.28 438.464 571.48C434.819 568.189 430.941 565.144 427.147 562.223C415.496 553.284 403.85 544.333 392.21 535.37L395.855 557.718C398.102 571.48 400.449 585.522 406.008 598.104C406.624 599.53 407.29 600.938 408.006 602.31H462.166C462.602 601.035 462.903 599.713 463.065 598.368C463.078 598.281 463.084 598.193 463.081 598.104C463.93 589.57 459.469 581.528 455.175 574.225Z" fill="#3F3D56"/>
<path d="M465.242 602.776H524.167C526.852 602.772 529.426 601.643 531.325 599.636C533.224 597.628 534.292 594.907 534.295 592.068V373.499C534.292 370.66 533.224 367.939 531.325 365.931C529.426 363.924 526.852 362.795 524.167 362.792H465.242C462.557 362.795 459.983 363.924 458.084 365.931C456.185 367.939 455.117 370.66 455.114 373.499V592.068C455.118 594.907 456.185 597.628 458.084 599.636C459.983 601.643 462.557 602.772 465.242 602.776V602.776Z" fill="white"/>
<path d="M479.156 368.373H509.374C510.383 368.371 511.35 367.947 512.064 367.192C512.777 366.438 513.179 365.415 513.18 364.348V352.864C513.179 351.797 512.777 350.774 512.064 350.019C511.35 349.265 510.383 348.84 509.374 348.839H479.156C478.147 348.84 477.179 349.265 476.466 350.019C475.752 350.774 475.351 351.797 475.349 352.864V364.348C475.351 365.415 475.752 366.438 476.466 367.192C477.179 367.947 478.147 368.371 479.156 368.373Z" fill="#3F3D56"/>
<path d="M392.736 603.097L756.745 603.383C757.022 603.382 757.288 603.265 757.484 603.057C757.68 602.849 757.789 602.568 757.789 602.275C757.789 601.982 757.68 601.701 757.484 601.493C757.288 601.285 757.022 601.168 756.745 601.167L392.736 600.882C392.459 600.882 392.193 600.999 391.997 601.207C391.801 601.415 391.691 601.696 391.691 601.989C391.691 602.282 391.801 602.564 391.997 602.771C392.193 602.979 392.459 603.096 392.736 603.097V603.097Z" fill="#CACACA"/>
</g>
<defs>
<clipPath id="clip0_379_531">
<rect width="757.792" height="603.383" fill="white" transform="matrix(-1 0 0 1 757.792 0)"/>
</clipPath>
</defs>
</svg>
