<svg width="789" height="600" viewBox="0 0 789 600" fill="none" xmlns="http://www.w3.org/2000/svg">
<path d="M668.503 265.176C668.503 265.176 657.291 227.395 670.605 199.592C676.268 187.965 677.976 174.828 675.472 162.155C674.235 156.148 672.447 150.266 670.128 144.583" stroke="#535461" stroke-width="2" stroke-miterlimit="10"/>
<path d="M678.452 127.018C678.452 131.648 669.982 145.072 669.982 145.072C669.982 145.072 661.511 131.648 661.511 127.018C661.425 125.865 661.58 124.708 661.965 123.617C662.351 122.526 662.959 121.526 663.752 120.679C664.545 119.832 665.505 119.156 666.573 118.694C667.641 118.232 668.793 117.994 669.958 117.994C671.124 117.994 672.276 118.232 673.344 118.694C674.412 119.156 675.372 119.832 676.165 120.679C676.958 121.526 677.566 122.526 677.952 123.617C678.337 124.708 678.492 125.865 678.406 127.018H678.452Z" fill="#0152A1"/>
<path d="M692.382 152.659C689.849 156.548 675.372 163.263 675.372 163.263C675.372 163.263 675.634 147.44 678.167 143.552C679.456 141.852 681.346 140.7 683.457 140.328C685.568 139.957 687.742 140.393 689.541 141.549C691.341 142.706 692.631 144.496 693.153 146.559C693.674 148.622 693.388 150.804 692.352 152.666L692.382 152.659Z" fill="#0152A1"/>
<path d="M691.774 196.491C687.608 198.576 671.753 197.132 671.753 197.132C671.753 197.132 680.031 183.602 684.197 181.516C686.172 180.702 688.384 180.66 690.39 181.398C692.395 182.135 694.045 183.599 695.008 185.493C695.971 187.388 696.176 189.574 695.582 191.612C694.988 193.651 693.638 195.391 691.805 196.483L691.774 196.491Z" fill="#0152A1"/>
<path d="M683.789 229.58C680.038 232.331 664.129 233.576 664.129 233.576C664.129 233.576 669.982 218.853 673.739 216.095C675.548 215.005 677.702 214.626 679.778 215.032C681.854 215.439 683.702 216.601 684.957 218.292C686.212 219.982 686.785 222.077 686.561 224.165C686.338 226.252 685.335 228.182 683.75 229.573L683.789 229.58Z" fill="#0152A1"/>
<path d="M657.661 164.157C661.01 167.381 676.604 170.728 676.604 170.728C676.604 170.728 672.754 155.363 669.435 152.132C668.66 151.27 667.715 150.576 666.659 150.093C665.602 149.61 664.457 149.348 663.294 149.324C662.131 149.299 660.975 149.513 659.899 149.951C658.822 150.389 657.849 151.042 657.038 151.87C656.228 152.698 655.598 153.683 655.187 154.763C654.777 155.843 654.596 156.996 654.654 158.148C654.712 159.301 655.01 160.43 655.527 161.463C656.044 162.497 656.771 163.414 657.661 164.157Z" fill="#0152A1"/>
<path d="M648.813 202.939C652.979 205.025 668.834 203.581 668.834 203.581C668.834 203.581 660.556 190.05 656.39 187.964C654.415 187.15 652.203 187.108 650.197 187.846C648.192 188.584 646.542 190.047 645.579 191.942C644.616 193.836 644.411 196.022 645.005 198.061C645.599 200.099 646.949 201.839 648.782 202.931L648.813 202.939Z" fill="#0152A1"/>
<path d="M645.425 241.805C649.175 244.555 665.084 245.8 665.084 245.8C665.084 245.8 659.232 231.078 655.474 228.32C654.593 227.547 653.56 226.964 652.44 226.609C651.319 226.254 650.137 226.134 648.968 226.257C647.798 226.381 646.668 226.744 645.648 227.324C644.628 227.905 643.741 228.69 643.043 229.629C642.345 230.568 641.852 231.641 641.596 232.78C641.339 233.918 641.324 235.097 641.552 236.242C641.779 237.386 642.245 238.471 642.918 239.428C643.591 240.384 644.458 241.191 645.463 241.797L645.425 241.805Z" fill="#0152A1"/>
<path opacity="0.1" d="M678.452 127.018C678.452 131.648 669.982 145.072 669.982 145.072C669.982 145.072 661.511 131.648 661.511 127.018C661.425 125.865 661.58 124.708 661.965 123.617C662.351 122.526 662.959 121.526 663.752 120.679C664.545 119.832 665.505 119.156 666.573 118.694C667.641 118.232 668.793 117.994 669.958 117.994C671.124 117.994 672.276 118.232 673.344 118.694C674.412 119.156 675.372 119.832 676.165 120.679C676.958 121.526 677.566 122.526 677.952 123.617C678.337 124.708 678.492 125.865 678.406 127.018H678.452Z" fill="#0152A1"/>
<path opacity="0.1" d="M692.382 152.659C689.849 156.548 675.372 163.263 675.372 163.263C675.372 163.263 675.634 147.44 678.167 143.552C679.456 141.852 681.346 140.7 683.457 140.328C685.568 139.957 687.742 140.393 689.541 141.549C691.341 142.706 692.631 144.496 693.153 146.559C693.674 148.622 693.388 150.804 692.352 152.666L692.382 152.659Z" fill="#0152A1"/>
<path opacity="0.1" d="M691.774 196.491C687.608 198.576 671.753 197.132 671.753 197.132C671.753 197.132 680.031 183.602 684.197 181.516C686.172 180.702 688.384 180.66 690.39 181.398C692.395 182.135 694.045 183.599 695.008 185.493C695.971 187.388 696.176 189.574 695.582 191.612C694.988 193.651 693.638 195.391 691.805 196.483L691.774 196.491Z" fill="#0152A1"/>
<path opacity="0.1" d="M683.789 229.58C680.038 232.331 664.129 233.576 664.129 233.576C664.129 233.576 669.982 218.853 673.739 216.095C675.548 215.005 677.702 214.626 679.778 215.032C681.854 215.439 683.702 216.601 684.957 218.292C686.212 219.982 686.785 222.077 686.561 224.165C686.338 226.252 685.335 228.182 683.75 229.573L683.789 229.58Z" fill="#0152A1"/>
<path opacity="0.1" d="M657.661 164.157C661.01 167.381 676.604 170.728 676.604 170.728C676.604 170.728 672.754 155.363 669.435 152.132C668.66 151.27 667.715 150.576 666.659 150.093C665.602 149.61 664.457 149.348 663.294 149.324C662.131 149.299 660.975 149.513 659.899 149.951C658.822 150.389 657.849 151.042 657.038 151.87C656.228 152.698 655.598 153.683 655.187 154.763C654.777 155.843 654.596 156.996 654.654 158.148C654.712 159.301 655.01 160.43 655.527 161.463C656.044 162.497 656.771 163.414 657.661 164.157Z" fill="#0152A1"/>
<path opacity="0.1" d="M648.813 202.939C652.979 205.025 668.834 203.581 668.834 203.581C668.834 203.581 660.556 190.05 656.39 187.964C654.415 187.15 652.203 187.108 650.197 187.846C648.192 188.584 646.542 190.047 645.579 191.942C644.616 193.836 644.411 196.022 645.005 198.061C645.599 200.099 646.949 201.839 648.782 202.931L648.813 202.939Z" fill="#0152A1"/>
<path opacity="0.1" d="M645.425 241.805C649.175 244.555 665.084 245.8 665.084 245.8C665.084 245.8 659.232 231.078 655.474 228.32C654.593 227.547 653.56 226.964 652.44 226.609C651.319 226.254 650.137 226.134 648.968 226.257C647.798 226.381 646.668 226.744 645.648 227.324C644.628 227.905 643.741 228.69 643.043 229.629C642.345 230.568 641.852 231.641 641.596 232.78C641.339 233.918 641.324 235.097 641.552 236.242C641.779 237.386 642.245 238.471 642.918 239.428C643.591 240.384 644.458 241.191 645.463 241.797L645.425 241.805Z" fill="#0152A1"/>
<path d="M715.476 325.533C715.476 325.533 704.264 287.753 717.578 259.95C723.241 248.322 724.949 235.186 722.445 222.513C721.209 216.506 719.42 210.624 717.101 204.941" stroke="#535461" stroke-width="2" stroke-miterlimit="10"/>
<path d="M725.425 187.376C725.425 192.006 716.955 205.43 716.955 205.43C716.955 205.43 708.484 192.006 708.484 187.376C708.398 186.223 708.553 185.065 708.938 183.974C709.324 182.883 709.932 181.883 710.725 181.036C711.518 180.189 712.478 179.514 713.546 179.052C714.614 178.59 715.766 178.351 716.931 178.351C718.097 178.351 719.249 178.59 720.317 179.052C721.385 179.514 722.345 180.189 723.138 181.036C723.931 181.883 724.539 182.883 724.925 183.974C725.31 185.065 725.465 186.223 725.379 187.376H725.425Z" fill="#0152A1"/>
<path d="M739.355 213.016C736.822 216.905 722.376 223.613 722.376 223.613C722.376 223.613 722.638 207.79 725.171 203.902C725.733 202.892 726.498 202.008 727.419 201.305C728.341 200.601 729.398 200.093 730.525 199.813C731.653 199.532 732.826 199.485 733.973 199.674C735.12 199.862 736.215 200.283 737.191 200.91C738.166 201.537 739.002 202.357 739.644 203.318C740.287 204.279 740.723 205.361 740.926 206.496C741.129 207.632 741.095 208.797 740.825 209.918C740.554 211.04 740.054 212.095 739.355 213.016Z" fill="#0152A1"/>
<path d="M738.747 256.848C734.581 258.934 718.726 257.49 718.726 257.49C718.726 257.49 727.004 243.959 731.17 241.873C732.168 241.278 733.28 240.894 734.435 240.745C735.59 240.595 736.764 240.684 737.883 241.005C739.002 241.326 740.042 241.873 740.939 242.611C741.835 243.349 742.569 244.262 743.093 245.294C743.618 246.326 743.922 247.454 743.987 248.608C744.052 249.762 743.877 250.917 743.472 252C743.067 253.084 742.441 254.073 741.634 254.906C740.826 255.739 739.854 256.397 738.778 256.84L738.747 256.848Z" fill="#0152A1"/>
<path d="M730.762 289.938C727.011 292.688 711.102 293.934 711.102 293.934C711.102 293.934 716.955 279.211 720.712 276.453C722.521 275.362 724.675 274.983 726.751 275.39C728.827 275.796 730.675 276.959 731.93 278.649C733.185 280.339 733.758 282.434 733.534 284.522C733.311 286.61 732.308 288.539 730.723 289.93L730.762 289.938Z" fill="#0152A1"/>
<path d="M704.634 224.515C707.983 227.739 723.577 231.085 723.577 231.085C723.577 231.085 719.727 215.721 716.408 212.489C714.769 211.121 712.668 210.42 710.529 210.526C708.39 210.633 706.371 211.54 704.879 213.064C703.386 214.588 702.531 216.617 702.486 218.742C702.441 220.866 703.208 222.929 704.634 224.515Z" fill="#0152A1"/>
<path d="M695.786 263.296C699.952 265.382 715.807 263.938 715.807 263.938C715.807 263.938 707.529 250.407 703.363 248.322C701.388 247.508 699.176 247.466 697.17 248.203C695.165 248.941 693.515 250.404 692.552 252.299C691.589 254.194 691.384 256.379 691.978 258.418C692.572 260.456 693.921 262.196 695.755 263.289L695.786 263.296Z" fill="#0152A1"/>
<path d="M692.398 302.162C696.148 304.913 712.057 306.158 712.057 306.158C712.057 306.158 706.205 291.435 702.447 288.677C701.566 287.904 700.533 287.322 699.413 286.967C698.292 286.612 697.11 286.492 695.941 286.615C694.771 286.738 693.641 287.101 692.621 287.682C691.601 288.262 690.714 289.047 690.016 289.986C689.318 290.925 688.826 291.999 688.569 293.137C688.312 294.276 688.297 295.455 688.525 296.599C688.752 297.744 689.218 298.829 689.891 299.785C690.565 300.742 691.431 301.549 692.436 302.154L692.398 302.162Z" fill="#0152A1"/>
<path opacity="0.1" d="M725.425 187.376C725.425 192.006 716.955 205.43 716.955 205.43C716.955 205.43 708.484 192.006 708.484 187.376C708.398 186.223 708.553 185.065 708.938 183.974C709.324 182.883 709.932 181.883 710.725 181.036C711.518 180.189 712.478 179.514 713.546 179.052C714.614 178.59 715.766 178.351 716.931 178.351C718.097 178.351 719.249 178.59 720.317 179.052C721.385 179.514 722.345 180.189 723.138 181.036C723.931 181.883 724.539 182.883 724.925 183.974C725.31 185.065 725.465 186.223 725.379 187.376H725.425Z" fill="#0152A1"/>
<path opacity="0.1" d="M739.355 213.016C736.822 216.905 722.376 223.613 722.376 223.613C722.376 223.613 722.638 207.79 725.171 203.902C725.733 202.892 726.498 202.008 727.419 201.305C728.341 200.601 729.398 200.093 730.525 199.813C731.653 199.532 732.826 199.485 733.973 199.674C735.12 199.862 736.215 200.283 737.191 200.91C738.166 201.537 739.002 202.357 739.644 203.318C740.287 204.279 740.723 205.361 740.926 206.496C741.129 207.632 741.095 208.797 740.825 209.918C740.554 211.04 740.054 212.095 739.355 213.016Z" fill="#0152A1"/>
<path opacity="0.1" d="M738.747 256.848C734.581 258.934 718.726 257.49 718.726 257.49C718.726 257.49 727.004 243.959 731.17 241.873C732.168 241.278 733.28 240.894 734.435 240.745C735.59 240.595 736.764 240.684 737.883 241.005C739.002 241.326 740.042 241.873 740.939 242.611C741.835 243.349 742.569 244.262 743.093 245.294C743.618 246.326 743.922 247.454 743.987 248.608C744.052 249.762 743.877 250.917 743.472 252C743.067 253.084 742.441 254.073 741.634 254.906C740.826 255.739 739.854 256.397 738.778 256.84L738.747 256.848Z" fill="#0152A1"/>
<path opacity="0.1" d="M730.762 289.938C727.011 292.688 711.102 293.934 711.102 293.934C711.102 293.934 716.955 279.211 720.712 276.453C722.521 275.362 724.675 274.983 726.751 275.39C728.827 275.796 730.675 276.959 731.93 278.649C733.185 280.339 733.758 282.434 733.534 284.522C733.311 286.61 732.308 288.539 730.723 289.93L730.762 289.938Z" fill="#0152A1"/>
<path opacity="0.1" d="M704.634 224.515C707.983 227.739 723.577 231.085 723.577 231.085C723.577 231.085 719.727 215.721 716.408 212.489C714.769 211.121 712.668 210.42 710.529 210.526C708.39 210.633 706.371 211.54 704.879 213.064C703.386 214.588 702.531 216.617 702.486 218.742C702.441 220.866 703.208 222.929 704.634 224.515Z" fill="#0152A1"/>
<path opacity="0.1" d="M695.786 263.296C699.952 265.382 715.807 263.938 715.807 263.938C715.807 263.938 707.529 250.407 703.363 248.322C701.388 247.508 699.176 247.466 697.17 248.203C695.165 248.941 693.515 250.404 692.552 252.299C691.589 254.194 691.384 256.379 691.978 258.418C692.572 260.456 693.921 262.196 695.755 263.289L695.786 263.296Z" fill="#0152A1"/>
<path opacity="0.1" d="M692.398 302.162C696.148 304.913 712.057 306.158 712.057 306.158C712.057 306.158 706.205 291.435 702.447 288.677C701.566 287.904 700.533 287.322 699.413 286.967C698.292 286.612 697.11 286.492 695.941 286.615C694.771 286.738 693.641 287.101 692.621 287.682C691.601 288.262 690.714 289.047 690.016 289.986C689.318 290.925 688.826 291.999 688.569 293.137C688.312 294.276 688.297 295.455 688.525 296.599C688.752 297.744 689.218 298.829 689.891 299.785C690.565 300.742 691.431 301.549 692.436 302.154L692.398 302.162Z" fill="#0152A1"/>
<path d="M755.596 360.044C769.834 331.088 766.892 283.956 765.375 267.957C765.044 264.458 764.782 262.448 764.782 262.448C764.782 262.448 752.231 260.485 756.859 245.411C759.122 238.03 751.083 233.95 742.305 231.712C736.028 230.223 729.623 229.325 723.177 229.03L601.594 221.581C584.922 195.329 552.118 199.547 552.118 199.547C552.118 199.547 522.856 196.529 502.111 196.216C498.962 193.463 495.511 191.072 491.823 189.087C489.625 187.777 487.285 186.718 484.846 185.932C481.882 185.083 478.758 184.935 475.725 185.499C472.693 186.062 469.835 187.323 467.382 189.179C466.186 190.032 465.212 191.156 464.54 192.457C464.282 193.048 464.088 193.665 463.963 194.298C463.65 195.377 463.393 196.471 463.193 197.575C463.012 198.107 462.752 198.609 462.422 199.065C461.591 200.234 460.159 201.113 459.974 202.526C459.969 202.608 459.969 202.689 459.974 202.771C459.822 203.041 459.72 203.336 459.673 203.642C459.618 204.271 459.755 204.902 460.066 205.453C460.112 205.544 460.166 205.628 460.22 205.712C459.196 207.183 458.361 208.774 457.733 210.449C457.448 210.603 457.173 210.774 456.909 210.961L456.678 211.129V211.595L456.547 211.695L456.262 219.22L456.424 219.342C456.657 222.853 457.724 226.259 459.539 229.281C461.354 232.304 463.865 234.857 466.866 236.731C466.966 237.213 467.058 237.702 467.151 238.214C467.573 240.681 467.764 243.183 467.72 245.686H467.589C463.97 244.158 457.779 246.404 452.458 249.025H383.523C396.968 231.865 413.417 218.555 413.417 218.555V203.474C401.666 202.893 298.433 252.096 275.801 262.96L274.8 263.442L158.484 267.017C137.415 266.887 118.996 269.959 103.04 274.963C76.3779 283.273 52.4185 298.46 33.6126 318.971C19.875 333.93 13.8532 346.292 13.8532 346.292L13.9841 347.331L13.8532 347.598L14.038 347.759L17.1721 372.299L19.3282 389.184C4.34305 398.795 23.756 402.646 23.756 402.646C42.2372 418.369 71.9688 417.72 71.9688 417.72C79.2304 427.553 100.368 426.239 100.368 426.239H211.325C213.053 416.132 215.367 406.132 218.255 396.289C222.991 430.128 249.904 456.051 282.385 456.051C284.794 456.05 287.201 455.904 289.592 455.615C291.984 455.904 294.391 456.05 296.8 456.051C329.658 456.051 356.81 429.516 361.084 395.113H366.513C365.499 402.799 363.738 410.37 361.253 417.72C460.982 388.886 646.572 375.126 646.572 375.126C647.342 367.868 648.189 360.854 649.106 354.123C656.752 372.956 674.086 386.105 694.261 386.105C696.094 386.102 697.925 385.99 699.744 385.769C701.563 385.99 703.394 386.102 705.227 386.105C729.183 386.105 749.12 367.562 753.617 342.976C754.212 347.315 754.552 351.685 754.633 356.064C753.778 360.235 753.031 362.902 752.931 363.276C753.532 362.186 754.102 361.071 754.641 359.93C754.641 360.373 754.641 360.831 754.641 361.29C754.456 362.054 754.325 362.481 754.287 362.627L754.625 362C754.625 362.336 754.625 362.665 754.625 363.001C754.549 363.032 754.957 361.931 755.596 360.044Z" fill="url(#paint0_linear_615_359)"/>
<path d="M743.96 256H515.333V347.507H743.96V256Z" fill="#6F7D95"/>
<path d="M457.201 213.146L489.674 285.323L553.981 281.457L556.576 251.813L558.525 217.012L467.597 210.564L457.201 213.146Z" fill="#4B5C7A"/>
<path d="M457.201 213.146C457.201 213.146 469.522 201.548 484.484 198.966C499.446 196.384 549.438 201.541 549.438 201.541L556.584 213.765L555.244 219.587L457.201 213.146Z" fill="#088C99"/>
<path d="M579.632 250.201H349.056V317.221H579.632V250.201Z" fill="#4B5C7A"/>
<path d="M522.902 295.798C528.993 275.589 516.85 262.311 516.85 262.311L496.72 248.375C496.704 248.422 496.683 248.468 496.659 248.513C494.041 245.468 492.167 241.865 491.184 237.984C491.122 237.74 491.068 237.488 491.007 237.22C492.847 235.864 494.458 234.226 495.781 232.369C499.061 230.375 500.524 227.166 501.079 223.965C503.189 220.857 504.87 217.484 506.077 213.933C506.276 213.359 506.446 212.775 506.585 212.183C506.973 211.082 507.145 209.918 507.093 208.753C506.929 207.456 506.494 206.206 505.815 205.086C502.426 198.974 496.328 194.718 490.144 191.249C487.983 189.961 485.681 188.921 483.283 188.147C480.368 187.314 477.297 187.168 474.315 187.723C471.333 188.277 468.524 189.516 466.111 191.341C464.935 192.18 463.976 193.286 463.316 194.565C463.061 195.147 462.87 195.754 462.746 196.376C462.447 197.438 462.203 198.514 462.014 199.6C461.846 200.119 461.603 200.611 461.29 201.059C460.466 202.205 459.065 203.069 458.88 204.467C458.876 204.548 458.876 204.63 458.88 204.711C458.732 204.977 458.632 205.267 458.588 205.567C458.531 206.185 458.665 206.806 458.973 207.347C459.019 207.439 459.073 207.523 459.127 207.607C458.119 209.054 457.296 210.619 456.678 212.267C456.396 212.419 456.123 212.587 455.862 212.772L455.638 212.932V213.391L455.507 213.49L455.222 220.893L455.376 221.016C455.604 224.469 456.653 227.819 458.437 230.793C460.221 233.766 462.69 236.278 465.641 238.122C465.741 238.596 465.834 239.077 465.918 239.581C466.384 242.247 466.569 244.953 466.473 247.657C466.442 247.424 466.442 247.187 466.473 246.954C460.905 244.456 448.762 251.362 443.872 254.418C443.131 254.767 442.439 255.211 441.816 255.74L441.731 255.801C438.366 258.506 431.721 266.024 426.446 285.346C419.13 312.308 419.893 318.42 414.564 324.67C409.235 330.92 403.945 374.95 403.945 374.95L414.672 377.815L416.042 373.445C428.794 384.982 464.502 390.536 464.502 390.536L465.595 387.167C471.07 389.123 480.226 386.151 480.226 386.151C493.609 381.46 498.622 369.556 508.333 353.856C518.043 338.155 522.902 295.798 522.902 295.798ZM468.922 377.036L493.64 300.963C495.881 312.774 485.994 331.378 485.116 343.541C484.569 351.365 475.39 366.913 468.922 377.036Z" fill="url(#paint1_linear_615_359)"/>
<path d="M499.847 215.751C499.847 215.751 504.151 232.017 491.376 234.852C478.601 237.686 487.018 227.54 487.018 227.54L499.339 215.629L499.847 215.751Z" fill="#472727"/>
<path d="M446.436 254.518C446.436 254.518 436.934 258.338 429.949 284.07C422.965 309.802 423.658 315.609 418.63 321.591C413.601 327.573 408.45 369.549 408.45 369.549L418.507 372.238L427.262 344.183L451.341 270.073L446.436 254.518Z" fill="#DDE0E4"/>
<path opacity="0.05" d="M446.436 254.518C446.436 254.518 436.934 258.338 429.949 284.07C422.965 309.802 423.658 315.609 418.63 321.591C413.601 327.573 408.45 369.549 408.45 369.549L418.507 372.238L427.262 344.183L451.341 270.073L446.436 254.518Z" fill="black"/>
<path d="M499.2 251.615C499.2 251.615 459.419 271.678 465.241 258.59C468.121 252.126 468.013 245.426 467.174 240.254C466.695 237.207 465.855 234.227 464.671 231.376C464.671 231.376 491.715 210.151 490.129 227.479C489.749 231.209 490.009 234.975 490.899 238.619C493.24 247.81 499.2 251.615 499.2 251.615Z" fill="#DB8B8B"/>
<path opacity="0.1" d="M490.899 238.649C488.341 240.687 485.333 242.096 482.12 242.76C478.908 243.424 475.583 243.324 472.418 242.469C470.566 241.975 468.791 241.232 467.143 240.261C466.664 237.214 465.824 234.234 464.64 231.383C464.64 231.383 491.684 210.159 490.098 227.487C489.726 231.226 489.996 235 490.899 238.649Z" fill="black"/>
<path d="M498.255 226.867C501.245 215.849 494.667 204.513 483.562 201.547C472.458 198.58 461.033 205.107 458.043 216.124C455.053 227.141 461.631 238.477 472.735 241.444C483.839 244.41 495.265 237.884 498.255 226.867Z" fill="#DB8B8B"/>
<path opacity="0.1" d="M467.69 211.419C467.118 211.766 466.482 211.994 465.82 212.09C465.158 212.186 464.483 212.149 463.835 211.98C463.188 211.811 462.582 211.513 462.053 211.106C461.525 210.698 461.084 210.189 460.759 209.609C460.473 209.091 460.35 208.5 460.405 207.913C460.582 206.583 461.907 205.758 462.715 204.658C463.97 202.878 463.732 200.441 464.64 198.462C465.266 197.253 466.168 196.207 467.274 195.406C469.524 193.66 472.159 192.468 474.963 191.926C477.767 191.384 480.66 191.508 483.406 192.288C485.653 193.016 487.808 193.998 489.828 195.215C495.619 198.492 501.325 202.503 504.459 208.333C505.094 209.403 505.498 210.592 505.645 211.824C505.68 213.156 505.444 214.481 504.952 215.721C503.794 219.145 502.181 222.4 500.155 225.401C499.477 224.566 498.626 223.886 497.66 223.407C497.172 223.178 496.624 223.107 496.093 223.205C495.562 223.302 495.076 223.563 494.703 223.949C494.033 224.797 493.625 226.417 492.608 226.035C491.946 225.791 491.954 224.881 491.985 224.179C492.123 221.122 490.444 218.242 488.188 216.179C485.932 214.116 483.137 212.757 480.38 211.419C478.401 210.457 475.76 208.249 473.588 207.859C470.893 207.363 469.622 210.235 467.69 211.419Z" fill="black"/>
<path d="M467.974 210.373C467.403 210.719 466.767 210.947 466.105 211.043C465.443 211.14 464.768 211.102 464.12 210.933C463.473 210.764 462.867 210.467 462.338 210.059C461.809 209.652 461.369 209.143 461.044 208.562C460.758 208.044 460.635 207.454 460.69 206.866C460.867 205.537 462.191 204.711 463 203.611C464.255 201.831 464.016 199.394 464.925 197.415C465.551 196.207 466.453 195.16 467.559 194.359C469.809 192.613 472.444 191.421 475.248 190.879C478.052 190.338 480.945 190.462 483.691 191.242C485.938 191.969 488.093 192.951 490.113 194.168C495.904 197.446 501.61 201.457 504.744 207.286C505.379 208.356 505.783 209.545 505.93 210.778C505.965 212.11 505.729 213.435 505.237 214.674C504.079 218.098 502.466 221.354 500.44 224.354C499.762 223.52 498.911 222.839 497.945 222.36C497.457 222.131 496.909 222.061 496.378 222.158C495.847 222.255 495.361 222.516 494.988 222.903C494.318 223.751 493.91 225.371 492.893 224.989C492.231 224.744 492.239 223.835 492.27 223.132C492.408 220.076 490.729 217.196 488.473 215.133C486.217 213.07 483.422 211.71 480.665 210.373C478.686 209.41 476.045 207.202 473.873 206.813C471.178 206.308 469.907 209.189 467.974 210.373Z" fill="#472727"/>
<path d="M478.878 254.35C478.878 254.35 495.35 251.148 496.066 248.528L514.901 261.723C514.901 261.723 526.236 274.321 520.438 293.605C520.438 293.605 515.718 334.014 506.539 349.012C497.36 364.009 492.085 383.438 479.51 387.977C479.51 387.977 467.42 380.245 463.431 380.337C463.431 380.337 483.907 350.899 484.785 339.309C485.662 327.719 495.019 309.947 492.97 298.701L465.248 384.195C465.248 384.195 420.586 377.319 416.058 362.611C416.058 362.611 419.908 356.873 419.192 351.059C418.476 345.245 436.041 301.505 436.041 301.505L444.449 255.893C444.449 255.893 461.083 244.364 467.705 247.359C467.674 247.313 466.473 253.005 478.878 254.35Z" fill="#DDE0E4"/>
<g opacity="0.1">
<path opacity="0.1" d="M484.877 218.884C480.811 213.383 473.057 217.898 471.786 218.685L469.792 218.487C468.051 216.607 462.715 211.611 457.702 215.285L457.486 215.446L457.186 222.498L457.402 222.666C458.85 223.775 460.492 224.609 462.245 225.126C463.355 225.45 464.527 225.507 465.664 225.294C466.506 225.102 467.294 224.728 467.974 224.2C468.654 223.672 469.209 223.002 469.599 222.238L470.639 222.307L471.409 222.162C471.563 222.974 471.89 223.745 472.368 224.422C472.846 225.099 473.464 225.667 474.181 226.089C477.623 228.022 482.652 226.089 482.86 226.05L483.121 225.951L484.969 219.128L484.877 218.884ZM482.267 225.088C481.242 225.432 477.377 226.562 474.782 225.088C474.136 224.686 473.591 224.142 473.191 223.498C472.79 222.854 472.544 222.128 472.472 221.375L472.379 220.817L470.693 221.161L468.999 221.1L468.837 221.421C468.528 222.115 468.062 222.729 467.476 223.216C466.89 223.704 466.199 224.051 465.456 224.232C462.553 224.851 459.196 222.62 458.318 221.986L458.572 216.027C462.931 213.116 467.736 217.837 469.122 219.381L469.268 219.541L472.079 219.816L472.248 219.701C472.325 219.656 479.31 215.003 483.291 218.746C483.488 218.928 483.671 219.125 483.838 219.335L482.267 225.088Z" fill="black"/>
<path opacity="0.1" d="M497.49 222.429L484.4 221.352L483.322 221.145L483.807 219.342C483.64 219.132 483.457 218.936 483.26 218.754L484.846 218.907L495.558 219.946L497.49 222.429Z" fill="black"/>
</g>
<path d="M485.016 218.395C480.95 212.894 473.195 217.409 471.925 218.196L469.93 217.998C468.19 216.118 462.854 211.121 457.841 214.796L457.625 214.957L457.325 222.009L457.54 222.177C458.988 223.286 460.63 224.12 462.384 224.637C463.494 224.961 464.666 225.018 465.803 224.805C466.644 224.613 467.433 224.239 468.113 223.711C468.793 223.183 469.347 222.513 469.738 221.749L470.777 221.818L471.548 221.673C471.702 222.485 472.029 223.256 472.507 223.933C472.985 224.61 473.603 225.178 474.32 225.6C477.762 227.533 482.79 225.6 482.998 225.561L483.26 225.462L485.108 218.639L485.016 218.395ZM482.405 224.599C481.381 224.943 477.515 226.073 474.92 224.599C474.274 224.197 473.73 223.653 473.329 223.009C472.929 222.365 472.683 221.639 472.61 220.886L472.518 220.328L470.831 220.672L469.16 220.565L468.999 220.886C468.695 221.584 468.233 222.203 467.65 222.696C467.066 223.189 466.377 223.542 465.634 223.728C462.73 224.347 459.373 222.116 458.495 221.482L458.749 215.522C463.108 212.611 467.913 217.333 469.299 218.876L469.445 219.037L472.256 219.312L472.425 219.197C472.502 219.151 479.487 214.498 483.468 218.242C483.665 218.424 483.848 218.62 484.015 218.83L482.405 224.599Z" fill="#472727"/>
<path d="M497.614 221.94L484.569 220.863L483.491 220.656L483.976 218.853C483.81 218.643 483.627 218.447 483.429 218.265L485.016 218.418L495.727 219.457L497.614 221.94Z" fill="#472727"/>
<path d="M408.157 302.399H179.529V393.906H408.157V302.399Z" fill="#6F7D95"/>
<path d="M284.164 453.835C319.399 453.835 347.962 422.82 347.962 384.562C347.962 346.303 319.399 315.288 284.164 315.288C248.929 315.288 220.365 346.303 220.365 384.562C220.365 422.82 248.929 453.835 284.164 453.835Z" fill="#4B5C7A"/>
<path opacity="0.05" d="M284.164 453.835C319.399 453.835 347.962 422.82 347.962 384.562C347.962 346.303 319.399 315.288 284.164 315.288C248.929 315.288 220.365 346.303 220.365 384.562C220.365 422.82 248.929 453.835 284.164 453.835Z" fill="black"/>
<path d="M298.34 453.835C333.575 453.835 362.139 422.82 362.139 384.562C362.139 346.303 333.575 315.288 298.34 315.288C263.105 315.288 234.542 346.303 234.542 384.562C234.542 422.82 263.105 453.835 298.34 453.835Z" fill="#4B5C7A"/>
<path opacity="0.05" d="M296.923 413.044C312.582 413.044 325.277 400.449 325.277 384.913C325.277 369.377 312.582 356.782 296.923 356.782C281.264 356.782 268.57 369.377 268.57 384.913C268.57 400.449 281.264 413.044 296.923 413.044Z" fill="black"/>
<path d="M296.923 393.355C301.623 393.355 305.432 389.576 305.432 384.913C305.432 380.25 301.623 376.471 296.923 376.471C292.224 376.471 288.414 380.25 288.414 384.913C288.414 389.576 292.224 393.355 296.923 393.355Z" stroke="#6F7D95" stroke-width="2" stroke-miterlimit="10"/>
<path d="M296.923 372.253C298.097 372.253 299.049 371.309 299.049 370.145C299.049 368.98 298.097 368.036 296.923 368.036C295.75 368.036 294.798 368.98 294.798 370.145C294.798 371.309 295.75 372.253 296.923 372.253Z" fill="#6F7D95"/>
<path d="M309.919 375.832C310.819 375.083 310.936 373.753 310.181 372.861C309.427 371.969 308.086 371.853 307.187 372.601C306.288 373.35 306.171 374.68 306.925 375.572C307.68 376.464 309.02 376.58 309.919 375.832Z" fill="#6F7D95"/>
<path d="M314.994 386.043C315.198 384.896 314.426 383.802 313.27 383.6C312.114 383.398 311.012 384.164 310.808 385.311C310.604 386.458 311.376 387.551 312.532 387.753C313.688 387.956 314.79 387.19 314.994 386.043Z" fill="#6F7D95"/>
<path d="M307.888 398.172C308.904 397.589 309.253 396.3 308.666 395.291C308.079 394.283 306.779 393.937 305.762 394.519C304.746 395.102 304.398 396.391 304.984 397.4C305.571 398.408 306.871 398.754 307.888 398.172Z" fill="#6F7D95"/>
<path d="M296.698 399.313C297.099 398.219 296.53 397.009 295.427 396.61C294.324 396.212 293.105 396.776 292.703 397.871C292.302 398.965 292.871 400.175 293.974 400.574C295.077 400.972 296.296 400.408 296.698 399.313Z" fill="#6F7D95"/>
<path d="M285.894 392.801C286.997 392.402 287.566 391.192 287.165 390.098C286.763 389.004 285.544 388.439 284.441 388.838C283.338 389.236 282.769 390.446 283.17 391.54C283.572 392.635 284.791 393.199 285.894 392.801Z" fill="#6F7D95"/>
<path d="M286.886 379.627C287.473 378.619 287.124 377.329 286.108 376.747C285.091 376.164 283.792 376.51 283.205 377.518C282.618 378.527 282.966 379.817 283.983 380.399C284.999 380.981 286.299 380.636 286.886 379.627Z" fill="#6F7D95"/>
<path d="M756.758 331.027C754.579 345.956 748.519 362.298 748.519 362.298C748.56 361.279 748.586 360.273 748.596 359.28C748.596 357.997 748.596 356.728 748.596 355.46C747.826 314.31 725.225 288.922 710.648 276.766C706.859 273.563 702.784 270.709 698.473 268.24H738.092C738.092 268.24 753.678 299.816 756.928 315.28C757.867 319.62 757.605 325.22 756.758 331.027Z" fill="#088C99"/>
<path opacity="0.05" d="M745.544 338.083C743.364 353.012 737.304 369.354 737.304 369.354C737.345 368.336 737.371 367.33 737.381 366.337C737.381 365.053 737.381 363.785 737.381 362.516C736.611 321.366 714.01 295.978 699.433 283.822C695.645 280.619 691.57 277.765 687.259 275.296H726.878C726.878 275.296 742.464 306.873 745.713 322.337C746.653 326.676 746.391 332.276 745.544 338.083Z" fill="black"/>
<path d="M689.21 385.051C716.007 385.051 737.731 361.462 737.731 332.364C737.731 303.266 716.007 279.677 689.21 279.677C662.412 279.677 640.689 303.266 640.689 332.364C640.689 361.462 662.412 385.051 689.21 385.051Z" fill="#4B5C7A"/>
<path opacity="0.05" d="M689.21 385.051C716.007 385.051 737.731 361.462 737.731 332.364C737.731 303.266 716.007 279.677 689.21 279.677C662.412 279.677 640.689 303.266 640.689 332.364C640.689 361.462 662.412 385.051 689.21 385.051Z" fill="black"/>
<path d="M699.99 385.051C726.788 385.051 748.511 361.462 748.511 332.364C748.511 303.266 726.788 279.677 699.99 279.677C673.193 279.677 651.47 303.266 651.47 332.364C651.47 361.462 673.193 385.051 699.99 385.051Z" fill="#4B5C7A"/>
<path opacity="0.05" d="M698.912 354.024C710.82 354.024 720.474 344.446 720.474 332.631C720.474 320.816 710.82 311.239 698.912 311.239C687.004 311.239 677.351 320.816 677.351 332.631C677.351 344.446 687.004 354.024 698.912 354.024Z" fill="black"/>
<path d="M698.912 339.049C702.485 339.049 705.381 336.176 705.381 332.631C705.381 329.087 702.485 326.213 698.912 326.213C695.34 326.213 692.444 329.087 692.444 332.631C692.444 336.176 695.34 339.049 698.912 339.049Z" stroke="#6F7D95" stroke-width="2" stroke-miterlimit="10"/>
<path d="M698.912 323.004C699.805 323.004 700.529 322.286 700.529 321.4C700.529 320.514 699.805 319.796 698.912 319.796C698.019 319.796 697.295 320.514 697.295 321.4C697.295 322.286 698.019 323.004 698.912 323.004Z" fill="#6F7D95"/>
<path d="M708.802 325.725C709.486 325.155 709.575 324.143 709.001 323.464C708.427 322.786 707.407 322.697 706.723 323.267C706.039 323.836 705.95 324.848 706.524 325.527C707.098 326.206 708.118 326.294 708.802 325.725Z" fill="#6F7D95"/>
<path d="M712.655 333.497C712.81 332.625 712.223 331.792 711.344 331.639C710.464 331.485 709.625 332.067 709.47 332.94C709.315 333.813 709.902 334.645 710.782 334.799C711.661 334.953 712.5 334.37 712.655 333.497Z" fill="#6F7D95"/>
<path d="M707.257 342.72C708.031 342.277 708.296 341.295 707.849 340.528C707.403 339.761 706.414 339.498 705.64 339.941C704.867 340.384 704.602 341.365 705.049 342.133C705.495 342.9 706.484 343.163 707.257 342.72Z" fill="#6F7D95"/>
<path d="M698.745 343.585C699.05 342.753 698.618 341.832 697.778 341.529C696.939 341.226 696.011 341.655 695.706 342.488C695.4 343.321 695.833 344.241 696.672 344.544C697.511 344.847 698.439 344.418 698.745 343.585Z" fill="#6F7D95"/>
<path d="M690.525 338.626C691.364 338.323 691.797 337.402 691.492 336.569C691.186 335.737 690.258 335.307 689.419 335.61C688.58 335.914 688.147 336.834 688.452 337.667C688.758 338.5 689.686 338.929 690.525 338.626Z" fill="#6F7D95"/>
<path d="M691.289 328.609C691.735 327.842 691.47 326.861 690.697 326.418C689.923 325.974 688.934 326.237 688.488 327.005C688.041 327.772 688.306 328.753 689.08 329.197C689.853 329.64 690.842 329.377 691.289 328.609Z" fill="#6F7D95"/>
<path d="M25.9276 391.652L20.0598 345.895H89.5568L125.279 377.471L107.745 418.071C107.745 418.071 37.0009 406.474 25.9276 391.652Z" fill="#088C99"/>
<path opacity="0.05" d="M125.302 377.471L107.768 418.071C107.768 418.071 37.0009 406.474 25.9276 391.652L25.6735 389.658L20.2831 347.346L20.2292 346.926L20.0983 345.902H89.5953L125.302 377.471Z" fill="black"/>
<path d="M413.039 205.414V220.236C413.039 220.236 377.124 249.269 368.576 276.659C367.084 281.107 366.521 285.809 366.921 290.48C370.17 320.766 273.406 265.986 273.406 265.986L277.711 263.908C299.957 253.265 401.481 204.834 413.039 205.414Z" fill="#7597CE"/>
<path d="M500.479 277.966C500.479 277.966 534.115 261.57 539.513 249.438C540.237 247.81 540.922 246.168 541.723 244.571C545.057 237.916 552.065 222.307 548.538 214.812C543.995 205.148 559.58 216.104 559.58 216.104L550.486 261.845L528.401 274.07L499.825 277.966" fill="#088C99"/>
<path opacity="0.05" d="M470.976 265.77C470.976 265.77 504.611 249.374 510.009 237.241C510.733 235.614 511.419 233.971 512.219 232.374C515.554 225.72 522.561 210.111 519.034 202.616C514.491 192.951 530.077 203.907 530.077 203.907L520.983 249.649L498.898 261.873L470.321 265.77" fill="#088C99"/>
<path opacity="0.05" d="M125.302 377.471L107.768 418.071C107.768 418.071 37.0009 406.474 25.9276 391.652L25.6735 389.658C25.9584 389.467 26.2587 389.268 26.5744 389.077C26.5744 389.077 48.0049 405.832 96.7259 409.705C96.7259 409.705 125.988 386.502 78.5373 360.732C78.5373 360.732 37.2627 362.015 20.26 347.354L20.0752 347.201L20.2061 346.934C20.319 346.715 20.5013 346.373 20.7528 345.91H89.5722L125.302 377.471Z" fill="black"/>
<path opacity="0.05" d="M366.921 290.473C370.17 320.766 273.406 265.986 273.406 265.986L277.711 263.908C280.56 266.918 291.933 277.072 314.673 275.971C329.304 275.261 351.52 275.91 368.615 276.651C367.11 281.096 366.534 285.799 366.921 290.473Z" fill="black"/>
<path opacity="0.05" d="M408.165 302.399V393.906H365.689C368.492 372.62 366.875 341.593 339.63 323.807C329.469 317.217 317.67 313.54 305.536 313.181C293.402 312.823 281.404 315.796 270.865 321.774C253.007 331.89 233.04 352.457 220.35 393.906H179.537V302.399H408.165Z" fill="black"/>
<path opacity="0.05" d="M755.957 338.083C754.355 348.183 751.783 357.993 747.802 366.352C747.289 367.477 746.729 368.575 746.123 369.645C746.223 369.27 746.955 366.657 747.802 362.547C751.929 342.53 758.991 287.138 711.679 283.975C711.063 283.937 710.455 283.899 709.846 283.876C706.06 280.654 701.985 277.782 697.672 275.296H737.291C737.291 275.296 752.877 306.873 756.126 322.337C757.066 326.676 756.804 332.276 755.957 338.083Z" fill="black"/>
<path d="M748.211 361.962C748.827 359.754 770.773 280.112 713.767 276.3C655.959 272.434 648.813 315.609 642.322 374.255C642.322 374.255 459.82 387.786 361.731 416.146C361.731 416.146 385.279 352.121 340.939 323.165C330.778 316.575 318.979 312.898 306.845 312.539C294.711 312.181 282.713 315.155 272.174 321.133C250.305 333.525 225.255 361.626 214.297 424.52H105.166C105.166 424.52 84.3743 425.811 77.236 416.116C77.236 416.116 47.9741 416.757 29.824 401.294C29.824 401.294 10.3418 397.428 25.9276 387.763C25.9276 387.763 48.0126 404.518 96.7259 408.391C96.7259 408.391 125.988 385.188 78.5374 359.418C78.5374 359.418 36.9547 360.709 20.0829 345.887C20.0829 345.887 26.0046 333.731 39.5189 319.024C58.0033 298.85 81.5558 283.909 107.768 275.727C125.431 270.309 143.841 267.675 162.326 267.919L276.964 264.374C276.964 264.374 288.037 278.554 314.635 277.263C341.232 275.971 393.226 279.196 393.226 279.196H393.742L500.717 274.39C503.789 273.96 506.827 273.322 509.811 272.48C525.32 268.301 554.736 255.626 549.43 220.229L717.655 230.543C723.996 230.832 730.295 231.715 736.468 233.179C745.108 235.379 753.008 239.398 750.783 246.656C746.24 261.478 758.576 263.411 758.576 263.411C758.576 263.411 758.838 265.39 759.161 268.828C760.701 285.04 763.727 333.785 748.211 361.962Z" fill="#088C99"/>
<path opacity="0.05" d="M233.772 291.122C233.772 291.122 163.62 291.764 117.494 332.379H143.476C143.476 332.379 216.222 313.691 233.756 298.869L233.772 291.122Z" fill="black"/>
<path d="M233.117 290.473C233.117 290.473 162.966 291.114 116.84 331.73H142.821C142.821 331.73 215.568 313.042 233.102 298.22L233.117 290.473Z" fill="#FFEC9F"/>
<path opacity="0.05" d="M108.415 276.376V293.697L49.3217 320.766L40.1735 319.673C58.6557 299.501 82.2054 284.559 108.415 276.376Z" fill="black"/>
<path d="M107.761 275.735V293.055L48.6594 320.116L39.5112 319.024C57.9965 298.853 81.549 283.914 107.761 275.735Z" fill="#FFEC9F"/>
<path opacity="0.05" d="M567.627 355.567L402.644 374.897C402.644 374.897 391.732 305.982 393.749 279.173L500.725 274.367C503.793 273.944 506.829 273.313 509.811 272.48V278.875L590.351 259.545C590.351 259.545 603.996 279.517 567.627 355.567Z" fill="black"/>
<path d="M549.438 201.541C549.438 201.541 584.514 197.033 600.1 226.677L549.938 224.759L549.438 201.541Z" fill="#088C99"/>
<path opacity="0.05" d="M597.666 237.068C596.288 241.354 597.327 246.068 605.313 249.33C611.958 252.05 619.751 248.902 622.023 242.141C623.347 238.198 622.439 233.736 615.277 230.107C608.116 226.478 600.076 229.58 597.666 237.068Z" fill="black"/>
<path d="M21.3149 355.552C21.3149 355.552 62.9438 376.944 92.8217 368.846" stroke="#088C99" stroke-miterlimit="10"/>
<path d="M22.7858 367.104C22.7858 367.104 49.6836 387.686 104.049 382.904" stroke="#088C99" stroke-miterlimit="10"/>
<path d="M24.0256 376.799C24.0256 376.799 50.7078 399.773 105.535 392.492" stroke="#088C99" stroke-miterlimit="10"/>
<path opacity="0.05" d="M598.09 223.216C598.09 223.216 576.39 241.805 556.584 250.209C556.584 250.209 586.662 255.519 598.09 223.216Z" fill="black"/>
<path opacity="0.1" d="M368.199 277.927C368.199 277.927 471.17 287.577 510.135 278.554C510.135 278.554 512.214 279.921 499.808 274.405L368.199 277.927Z" fill="black"/>
<path opacity="0.05" d="M759.169 268.828C752.754 264.649 742.582 255.977 743.968 246.328C744.661 241.491 741.211 236.968 736.475 233.171C745.115 235.372 753.016 239.39 750.791 246.648C746.247 261.47 758.584 263.403 758.584 263.403C758.584 263.403 758.838 265.39 759.169 268.828Z" fill="black"/>
<path opacity="0.1" d="M139.749 277.095C139.749 277.095 157.537 278.309 162.442 274.657C155.987 279.563 148.358 282.722 140.303 283.826L139.749 277.095Z" fill="black"/>
<path d="M603.85 317.312C603.85 317.312 617.326 343.557 606.345 357.912C595.364 372.268 607.346 411.394 607.346 411.394" stroke="#6C63FF" stroke-miterlimit="10"/>
<path d="M607.839 309.145C607.839 314.203 604.096 318.313 604.096 318.313C604.096 318.313 600.354 314.211 600.354 309.145C600.354 304.08 604.096 299.977 604.096 299.977C604.096 299.977 607.839 304.087 607.839 309.145Z" fill="#0152A1"/>
<path d="M610.834 317.312C610.834 317.312 597.358 343.557 608.339 357.912C619.32 372.268 607.338 411.394 607.338 411.394" stroke="#6C63FF" stroke-miterlimit="10"/>
<path d="M606.837 309.145C606.837 314.203 610.58 318.313 610.58 318.313C610.58 318.313 614.322 314.211 614.322 309.145C614.322 304.08 610.58 299.977 610.58 299.977C610.58 299.977 606.837 304.087 606.837 309.145Z" fill="#0152A1"/>
<path opacity="0.1" d="M606.837 309.145C606.837 314.203 610.58 318.313 610.58 318.313C610.58 318.313 614.322 314.211 614.322 309.145C614.322 304.08 610.58 299.977 610.58 299.977C610.58 299.977 606.837 304.087 606.837 309.145Z" fill="black"/>
<path d="M616.325 317.312C616.325 317.312 629.8 343.557 618.819 357.912C607.839 372.268 619.821 411.394 619.821 411.394" stroke="#6C63FF" stroke-miterlimit="10"/>
<path d="M620.313 309.145C620.313 314.203 616.571 318.313 616.571 318.313C616.571 318.313 612.829 314.211 612.829 309.145C612.829 304.08 616.571 299.977 616.571 299.977C616.571 299.977 620.313 304.087 620.313 309.145Z" fill="#0152A1"/>
<path d="M618.219 330.171C614.684 333.815 609.117 334.197 609.117 334.197C609.117 334.197 609.286 328.666 612.821 325.029C616.355 321.392 621.923 321.003 621.923 321.003C621.923 321.003 621.754 326.527 618.219 330.171Z" fill="#0152A1"/>
<path d="M618.565 348.278C615.031 351.923 609.463 352.305 609.463 352.305C609.463 352.305 609.633 346.773 613.167 343.136C616.702 339.5 622.239 339.102 622.239 339.102C622.239 339.102 622.1 344.626 618.565 348.278Z" fill="#0152A1"/>
<path d="M599.399 358.233C602.741 362.054 602.625 367.585 602.625 367.585C602.625 367.585 597.089 366.92 593.747 363.1C590.405 359.28 590.52 353.749 590.52 353.749C590.52 353.749 596.057 354.413 599.399 358.233Z" fill="#0152A1"/>
<path d="M602.502 319.628C606.753 322.424 608.131 327.787 608.131 327.787C608.131 327.787 602.61 328.612 598.367 325.847C594.124 323.081 592.738 317.687 592.738 317.687C592.738 317.687 598.251 316.831 602.502 319.628Z" fill="#0152A1"/>
<path opacity="0.1" d="M602.502 319.628C606.753 322.424 608.131 327.787 608.131 327.787C608.131 327.787 602.61 328.612 598.367 325.847C594.124 323.081 592.738 317.687 592.738 317.687C592.738 317.687 598.251 316.831 602.502 319.628Z" fill="black"/>
<path d="M623.309 317.312C623.309 317.312 609.833 343.557 620.814 357.912C631.795 372.268 619.813 411.394 619.813 411.394" stroke="#6C63FF" stroke-miterlimit="10"/>
<path d="M619.32 309.145C619.32 314.203 623.062 318.313 623.062 318.313C623.062 318.313 626.805 314.211 626.805 309.145C626.805 304.08 623.062 299.977 623.062 299.977C623.062 299.977 619.32 304.087 619.32 309.145Z" fill="#0152A1"/>
<path opacity="0.1" d="M619.32 309.145C619.32 314.203 623.062 318.313 623.062 318.313C623.062 318.313 626.805 314.211 626.805 309.145C626.805 304.08 623.062 299.977 623.062 299.977C623.062 299.977 619.32 304.087 619.32 309.145Z" fill="black"/>
<path d="M620.398 330.561C616.817 334.167 616.548 339.729 616.548 339.729C616.548 339.729 622.115 339.416 625.696 335.809C629.277 332.203 629.546 326.641 629.546 326.641C629.546 326.641 623.971 326.954 620.398 330.561Z" fill="#0152A1"/>
<path opacity="0.1" d="M620.398 330.561C616.817 334.167 616.548 339.729 616.548 339.729C616.548 339.729 622.115 339.416 625.696 335.809C629.277 332.203 629.546 326.641 629.546 326.641C629.546 326.641 623.971 326.954 620.398 330.561Z" fill="black"/>
<path d="M627.413 355.643C623.832 359.25 623.563 364.812 623.563 364.812C623.563 364.812 629.13 364.498 632.711 360.892C636.292 357.286 636.561 351.724 636.561 351.724C636.561 351.724 630.994 352.022 627.413 355.643Z" fill="#0152A1"/>
<path d="M617.087 350.12C617.087 350.12 625.195 337.437 636.584 337.131" stroke="#6C63FF" stroke-miterlimit="10"/>
<path d="M610.772 342.456C610.772 342.456 602.664 329.774 591.275 329.468" stroke="#6C63FF" stroke-miterlimit="10"/>
<path d="M609.717 360.564C609.717 360.564 617.826 347.881 629.215 347.575" stroke="#6C63FF" stroke-miterlimit="10"/>
<path d="M636.207 339.148C637.368 339.148 638.309 338.214 638.309 337.062C638.309 335.911 637.368 334.977 636.207 334.977C635.046 334.977 634.105 335.911 634.105 337.062C634.105 338.214 635.046 339.148 636.207 339.148Z" fill="#0152A1"/>
<path d="M591.467 331.661C592.628 331.661 593.57 330.727 593.57 329.575C593.57 328.423 592.628 327.489 591.467 327.489C590.306 327.489 589.365 328.423 589.365 329.575C589.365 330.727 590.306 331.661 591.467 331.661Z" fill="#0152A1"/>
<path d="M615.685 364.743C615.685 364.743 607.577 352.06 596.188 351.755" stroke="#6C63FF" stroke-miterlimit="10"/>
<path d="M596.38 353.947C597.541 353.947 598.482 353.014 598.482 351.862C598.482 350.71 597.541 349.776 596.38 349.776C595.219 349.776 594.278 350.71 594.278 351.862C594.278 353.014 595.219 353.947 596.38 353.947Z" fill="#0152A1"/>
<path d="M629.369 349.768C630.53 349.768 631.471 348.834 631.471 347.682C631.471 346.53 630.53 345.597 629.369 345.597C628.208 345.597 627.267 346.53 627.267 347.682C627.267 348.834 628.208 349.768 629.369 349.768Z" fill="#0152A1"/>
<path d="M660.518 396.136C660.518 396.136 640.974 392.255 635.761 387.083C630.547 381.91 607.092 372.887 604.489 379.328C601.886 385.769 569.305 407.795 591.436 411.669C613.568 415.542 643.561 416.841 650.076 414.251C656.591 411.661 660.518 396.136 660.518 396.136Z" fill="#A8A8A8"/>
<path opacity="0.2" d="M591.437 409.27C613.591 413.151 643.561 414.442 650.076 411.852C655.035 409.881 658.485 400.392 659.848 396.022L660.502 396.16C660.502 396.16 656.59 411.677 650.076 414.259C643.561 416.841 613.591 415.55 591.437 411.677C585.045 410.554 583.212 407.925 583.905 404.602C584.468 406.764 586.693 408.437 591.437 409.27Z" fill="black"/>
<path d="M87.262 460.818C87.262 460.818 93.715 469.223 84.2819 481.829C74.8488 494.435 67.0713 505.139 70.2208 513.031C70.2208 513.031 84.4514 489.553 96.0329 489.225C107.614 488.896 99.9987 474.937 87.262 460.818Z" fill="#0152A1"/>
<path opacity="0.1" d="M87.262 460.818C87.8243 461.628 88.2677 462.513 88.5788 463.447C99.8831 476.618 105.897 488.911 95.0395 489.225C84.921 489.515 72.7851 507.462 69.8743 512C69.9703 512.35 70.086 512.694 70.2208 513.031C70.2208 513.031 84.4513 489.553 96.0328 489.225C107.614 488.896 99.9986 474.937 87.262 460.818Z" fill="black"/>
<path d="M99.2594 471.484C99.2594 474.433 98.9283 476.832 98.4893 476.832C98.0504 476.832 97.7193 474.441 97.7193 471.484C97.7193 468.527 98.1351 469.956 98.5432 469.956C98.9514 469.956 99.2594 468.542 99.2594 471.484Z" fill="#FFD037"/>
<path d="M103.371 475.006C100.761 476.42 98.4893 477.298 98.2968 476.909C98.1043 476.519 100.053 475.113 102.663 473.707C105.273 472.302 104.242 473.325 104.442 473.707C104.642 474.089 105.982 473.593 103.371 475.006Z" fill="#FFD037"/>
<path d="M53.1719 460.818C53.1719 460.818 46.7189 469.223 56.152 481.829C65.5851 494.435 73.3626 505.139 70.2131 513.024C70.2131 513.024 55.9826 489.546 44.401 489.217C32.8195 488.888 40.4353 474.937 53.1719 460.818Z" fill="#0152A1"/>
<path opacity="0.1" d="M53.1719 460.818C52.6096 461.628 52.1662 462.513 51.8551 463.447C40.5508 476.618 34.5367 488.911 45.3944 489.225C55.5128 489.515 67.6488 507.462 70.5596 512C70.4636 512.35 70.3479 512.694 70.2131 513.031C70.2131 513.031 55.9826 489.553 44.401 489.225C32.8195 488.896 40.4353 474.937 53.1719 460.818Z" fill="black"/>
<path d="M41.1746 471.484C41.1746 474.433 41.5057 476.832 41.9446 476.832C42.3835 476.832 42.7147 474.441 42.7147 471.484C42.7147 468.527 42.2988 469.956 41.8907 469.956C41.4826 469.956 41.1746 468.542 41.1746 471.484Z" fill="#FFD037"/>
<path d="M37.0625 475.006C39.673 476.42 41.9446 477.298 42.1371 476.909C42.3296 476.519 40.3814 475.113 37.7709 473.707C35.1605 472.302 36.1923 473.325 35.9921 473.707C35.7919 474.089 34.452 473.593 37.0625 475.006Z" fill="#FFD037"/>
<path d="M43.2306 511.924C43.2306 511.924 61.2729 511.373 66.7094 507.53C72.146 503.687 94.4312 499.126 95.8096 505.238C97.188 511.351 122.923 535.883 102.555 536.044C82.1874 536.204 55.228 532.896 49.7991 529.618C44.3703 526.341 43.2306 511.924 43.2306 511.924Z" fill="#A8A8A8"/>
<path opacity="0.2" d="M102.925 533.927C82.557 534.088 55.5976 530.78 50.1687 527.502C46.0336 525.004 44.3857 516.042 43.8389 511.908H43.2383C43.2383 511.908 44.378 526.348 49.8068 529.626C55.2357 532.904 82.1951 536.22 102.563 536.051C108.446 536.006 110.471 533.927 110.363 530.856C109.54 532.736 107.299 533.889 102.925 533.927Z" fill="black"/>
<path d="M249 173C249 208.19 249 206.376 249 201.071" stroke="#3F3D56" stroke-width="7"/>
<path d="M233 189C260.792 189 265.108 189 263.792 189" stroke="#3F3D56" stroke-width="7"/>
<defs>
<linearGradient id="paint0_linear_615_359" x1="390.176" y1="456.081" x2="390.176" y2="185.175" gradientUnits="userSpaceOnUse">
<stop stop-color="#808080" stop-opacity="0.25"/>
<stop offset="0.54" stop-color="#808080" stop-opacity="0.12"/>
<stop offset="1" stop-color="#808080" stop-opacity="0.1"/>
</linearGradient>
<linearGradient id="paint1_linear_615_359" x1="53175.7" y1="133282" x2="66991.8" y2="81565.4" gradientUnits="userSpaceOnUse">
<stop stop-color="#808080" stop-opacity="0.25"/>
<stop offset="0.54" stop-color="#808080" stop-opacity="0.12"/>
<stop offset="1" stop-color="#808080" stop-opacity="0.1"/>
</linearGradient>
</defs>
</svg>
